<svg xmlns="http://www.w3.org/2000/svg" version="1.0" width="500.000000pt" height="500.000000pt" viewBox="0 0 500.000000 500.000000" preserveAspectRatio="xMidYMid meet" transform="matrix(1, 0, 0, 1, 0, 0)">

<g transform="translate(0.000000,500.000000) scale(0.100000,-0.100000)" fill="#ffffff" stroke="none">
<path d="M2235 4890 c-344 -34 -759 -186 -1076 -393 -222 -145 -458 -365 -598 -557 -22 -30 -53 -73 -70 -95 -62 -85 -136 -214 -196 -344 -139 -303 -195 -512 -226 -848 -26 -287 27 -695 126 -968 88 -243 196 -441 364 -670 72 -98 226 -257 349 -360 146 -123 417 -296 538 -343 27 -11 74 -31 104 -45 153 -70 391 -138 578 -164 167 -24 563 -24 727 0 203 30 410 91 640 188 279 119 601 353 823 600 310 344 517 786 577 1234 62 459 2 920 -170 1300 -13 28 -37 80 -53 117 -51 112 -180 314 -290 453 -90 112 -311 327 -422 409 -329 243 -674 394 -1065 467 -126 23 -504 34 -660 19z m415 -250 c198 -17 457 -75 590 -132 25 -11 65 -27 90 -35 47 -16 237 -117 305 -163 22 -14 66 -43 97 -64 70 -46 280 -225 329 -280 20 -23 62 -70 93 -105 174 -196 348 -527 430 -816 59 -210 71 -302 71 -555 -1 -177 -5 -260 -18 -335 -41 -235 -118 -474 -214 -660 -111 -215 -306 -467 -465 -602 -40 -33 -86 -73 -103 -87 -53 -47 -277 -192 -364 -236 -188 -94 -419 -171 -636 -212 -103 -19 -153 -22 -360 -22 -263 0 -345 9 -553 65 -251 66 -466 168 -736 348 -78 52 -273 231 -362 332 -263 301 -438 686 -500 1104 -24 162 -24 440 0 595 29 196 66 324 148 525 123 301 332 588 592 811 105 90 133 111 274 202 224 145 594 276 882 311 177 22 256 24 410 11z" fill="#ffffff"/>
<path d="M2292 4419 c-29 -5 -70 -18 -92 -29 -47 -24 -110 -78 -110 -94 0 -6 21 -24 48 -39 47 -28 165 -100 252 -155 89 -56 222 -132 230 -132 19 0 42 103 38 169 -14 186 -177 311 -366 280z" fill="#ffffff"/>
<path d="M1922 4248 c-29 -29 -13 -55 62 -104 l73 -48 -23 -44 c-32 -59 -33 -157 -4 -218 50 -102 141 -158 255 -158 95 0 161 35 220 117 l20 27 53 -36 c29 -19 60 -34 69 -32 25 5 40 35 27 55 -10 16 -131 92 -369 233 -44 26 -141 86 -216 134 -75 47 -141 86 -146 86 -5 0 -14 -5 -21 -12z" fill="#ffffff"/>
<path d="M1525 3854 c-111 -34 -544 -184 -576 -200 -70 -35 -109 -125 -90 -206 11 -50 91 -216 214 -447 84 -158 102 -174 189 -168 62 4 96 25 124 79 29 56 19 91 -86 299 -55 109 -100 203 -100 209 0 5 7 10 15 10 8 0 78 20 156 45 78 25 143 44 144 43 2 -2 -25 -66 -59 -143 l-62 -140 42 -80 c22 -44 43 -89 46 -101 3 -13 48 -46 129 -94 68 -40 144 -85 169 -100 25 -15 71 -41 102 -58 l57 -32 77 161 c48 98 80 155 85 147 4 -7 26 -85 48 -173 29 -113 57 -195 97 -280 31 -66 67 -144 80 -174 l25 -53 -48 27 c-26 16 -70 43 -98 60 -66 44 -174 108 -205 123 -14 6 -77 44 -140 83 -63 39 -162 98 -220 131 -58 34 -115 67 -127 75 -20 14 -23 12 -39 -19 -9 -18 -25 -43 -36 -54 l-19 -22 73 -45 c40 -26 123 -75 183 -110 61 -35 182 -107 270 -160 88 -53 233 -140 323 -194 89 -53 162 -103 162 -109 0 -19 49 -73 82 -90 19 -10 48 -14 77 -12 43 3 57 -4 206 -91 88 -52 189 -113 225 -137 76 -48 189 -109 193 -103 2 2 13 28 25 58 l22 53 -23 18 c-12 11 -56 38 -97 61 -41 23 -91 52 -110 65 -19 12 -95 59 -168 103 l-134 80 -2 58 c-2 43 -12 78 -40 138 -21 44 -58 127 -81 185 -24 58 -53 128 -65 155 -22 50 -50 160 -116 460 -49 225 -50 226 -88 272 -20 22 -102 85 -183 139 -81 54 -197 133 -258 175 -60 42 -124 84 -142 93 -45 22 -131 19 -228 -10z" fill="#ffffff"/>
<path d="M3447 3440 c-3 -14 -9 -43 -12 -65 -10 -66 -51 -140 -94 -170 -42 -28 -145 -65 -189 -66 -24 0 -25 -1 -7 -9 11 -4 46 -13 77 -20 67 -13 143 -60 175 -108 12 -18 27 -59 33 -90 23 -112 22 -111 32 -57 18 100 37 143 88 188 46 42 125 77 174 77 47 0 47 17 -1 24 -26 3 -70 17 -98 30 -102 47 -130 88 -159 226 -10 50 -15 59 -19 40z" fill="#ffffff"/>
<path d="M1210 2714 c-5 -11 -23 -67 -40 -125 -18 -57 -76 -239 -130 -404 -210 -648 -209 -646 -190 -715 34 -122 216 -166 298 -73 29 33 56 104 192 511 86 260 162 478 167 483 6 6 46 -19 114 -74 79 -63 210 -166 247 -192 1 -1 -9 -139 -24 -307 -15 -170 -24 -322 -20 -342 17 -92 126 -153 225 -126 85 23 131 95 131 206 0 28 9 167 21 308 11 142 19 276 17 298 -3 40 -4 41 -133 120 -71 44 -155 94 -185 110 -30 17 -82 47 -115 68 -33 21 -150 91 -260 156 -188 111 -203 118 -254 119 -45 0 -55 -3 -61 -21z" fill="#ffffff"/>
<path d="M3919 2630 c-9 -5 -25 -33 -36 -62 -11 -29 -60 -153 -108 -275 -86 -217 -88 -223 -71 -247 17 -26 57 -35 84 -18 7 5 39 78 71 163 32 85 79 206 105 269 25 63 46 120 46 127 0 19 -37 53 -57 53 -10 0 -25 -5 -34 -10z" fill="#ffffff"/>
<path d="M3516 2588 c-13 -19 -16 -60 -16 -248 0 -250 4 -270 60 -270 58 0 60 7 60 275 0 231 -1 245 -19 255 -32 17 -69 12 -85 -12z" fill="#ffffff"/>
<path d="M3965 2065 c-147 -114 -168 -137 -154 -172 25 -66 51 -59 203 59 72 56 134 107 138 112 13 18 9 54 -8 70 -31 32 -65 19 -179 -69z" fill="#ffffff"/>
<path d="M3422 1879 c-50 -25 -90 -79 -99 -133 l-6 -36 191 0 192 0 -6 33 c-7 39 -49 103 -86 130 -42 31 -131 34 -186 6z" fill="#ffffff"/>
<path d="M3050 1588 c-58 -29 -90 -89 -90 -165 l0 -53 531 0 531 0 -4 70 c-4 82 -24 114 -88 148 -44 22 -49 22 -440 22 -391 0 -396 0 -440 -22z" fill="#ffffff"/>
<path d="M944 1245 c-4 -9 15 -33 52 -67 33 -29 102 -94 154 -144 135 -131 157 -144 240 -144 l68 0 35 83 c66 160 100 255 94 271 -6 14 -43 16 -322 16 -270 0 -316 -2 -321 -15z" fill="#ffffff"/>
<path d="M1732 1248 c-5 -7 -35 -74 -65 -148 -31 -74 -63 -152 -71 -172 l-16 -38 415 0 415 0 -2 183 -3 182 -331 3 c-257 2 -334 -1 -342 -10z" fill="#ffffff"/>
<path d="M2540 1241 c-6 -11 -10 -90 -10 -186 l0 -166 72 3 72 3 74 85 c41 47 106 121 146 164 116 130 131 116 -123 116 -208 0 -221 -1 -231 -19z" fill="#ffffff"/>
<path d="M3075 1153 c-49 -59 -118 -139 -152 -179 -35 -40 -63 -75 -63 -78 0 -3 123 -6 274 -6 l274 0 -66 173 c-35 94 -69 178 -75 185 -5 6 -30 12 -56 12 l-46 0 -90 -107z" fill="#ffffff"/>
<path d="M3408 1248 c-4 -12 70 -238 105 -320 l16 -38 64 0 c70 0 90 11 190 101 l47 44 -111 113 -111 112 -98 0 c-69 0 -100 -4 -102 -12z" fill="#ffffff"/>
<path d="M3859 1196 l64 -65 26 19 c45 32 94 88 87 99 -5 7 -51 11 -124 11 l-116 0 63 -64z" fill="#ffffff"/>
<path d="M1538 789 c-28 -16 -22 -24 40 -57 387 -204 816 -271 1262 -196 168 29 341 88 554 189 l79 38 -22 19 c-22 17 -64 18 -960 18 -617 -1 -942 -4 -953 -11z" fill="#ffffff"/>
</g>
</svg>