<svg xmlns="http://www.w3.org/2000/svg" version="1.0" width="500.000000pt" height="500.000000pt" viewBox="0 0 500.000000 500.000000" preserveAspectRatio="xMidYMid meet">

<g transform="translate(0.000000,500.000000) scale(0.100000,-0.100000)" fill="#ffffff" stroke="none">
<path d="M2826 4465 c-65 -23 -112 -80 -132 -159 l-7 -29 154 6 c143 5 231 18 253 38 14 13 -12 63 -53 103 -55 54 -136 69 -215 41z" fill="#ffffff"/>
<path d="M1301 4238 c-18 -106 -34 -198 -36 -204 -2 -7 20 -11 66 -10 38 0 69 3 69 6 0 3 -11 82 -25 175 -13 94 -25 182 -25 198 0 15 -4 27 -8 27 -5 0 -23 -87 -41 -192z" fill="#ffffff"/>
<path d="M784 4245 c16 -27 53 -87 82 -132 29 -45 61 -97 70 -115 34 -66 66 -111 73 -101 3 6 31 28 62 50 l56 39 -70 54 c-38 30 -104 86 -146 123 -42 38 -94 83 -116 100 l-40 32 29 -50z" fill="#ffffff"/>
<path d="M1863 4243 c-32 -26 -90 -74 -129 -107 -39 -34 -97 -80 -128 -104 -32 -24 -56 -47 -54 -51 7 -18 110 -93 118 -85 21 24 261 394 255 394 -2 0 -30 -21 -62 -47z" fill="#ffffff"/>
<path d="M3035 4264 c-33 -8 -123 -17 -200 -20 -152 -7 -170 -13 -265 -94 l-34 -30 36 0 c117 0 374 41 608 98 l75 19 -69 21 c-77 25 -71 25 -151 6z" fill="#ffffff"/>
<path d="M3662 4218 c-18 -51 -52 -78 -108 -87 l-49 -7 35 -12 c57 -21 80 -49 81 -101 0 -40 2 -43 12 -27 25 41 56 65 98 76 l44 12 -37 19 c-47 24 -52 32 -58 103 l-5 59 -13 -35z" fill="#ffffff"/>
<path d="M3010 4124 c-52 -13 -135 -29 -185 -36 -49 -6 -92 -13 -94 -14 -9 -7 51 -115 82 -147 87 -86 231 -49 290 75 14 29 28 74 32 101 7 56 12 55 -125 21z" fill="#ffffff"/>
<path d="M4081 4099 c-14 -53 -48 -87 -106 -106 l-30 -11 30 -7 c99 -23 113 -35 137 -119 l14 -47 17 53 c17 56 50 94 102 121 l30 15 -40 7 c-33 5 -95 24 -95 29 0 0 -11 27 -23 58 l-23 57 -13 -50z" fill="#ffffff"/>
<path d="M3119 3942 c-42 -57 -90 -90 -141 -98 l-38 -7 0 -61 c0 -33 3 -78 6 -99 l7 -38 46 7 c63 9 221 41 226 46 2 2 -3 63 -12 136 -14 114 -20 134 -38 146 -20 13 -24 11 -56 -32z" fill="#ffffff"/>
<path d="M1256 3920 c-113 -20 -222 -107 -274 -218 -23 -49 -27 -70 -27 -152 0 -83 3 -102 28 -151 59 -120 160 -198 283 -218 121 -19 248 24 327 109 78 85 101 145 102 260 0 88 -3 101 -33 162 -75 153 -239 237 -406 208z m154 -202 c26 -14 57 -41 75 -66 25 -36 30 -53 29 -100 0 -31 -7 -69 -15 -84 -20 -38 -85 -86 -133 -99 -79 -22 -183 27 -213 99 -24 57 -14 151 20 196 57 75 153 96 237 54z" fill="#ffffff"/>
<path d="M3300 3898 c1 -116 82 -344 177 -495 l33 -52 35 15 c20 8 40 12 45 9 4 -3 27 -38 50 -77 l41 -72 -132 -129 c-73 -70 -146 -135 -163 -144 -47 -23 -66 -44 -66 -70 0 -15 -6 -23 -17 -23 -34 0 -128 -51 -169 -91 l-41 -40 -6 30 c-10 47 -41 60 -168 72 -287 24 -271 22 -281 48 -8 23 1 34 100 130 61 59 117 117 125 131 9 14 20 61 26 105 10 69 8 95 -9 189 -11 60 -25 169 -32 242 l-12 132 -23 -16 c-41 -30 -61 -91 -87 -266 -29 -186 -31 -216 -16 -216 6 0 10 -16 10 -35 0 -38 -45 -100 -187 -257 -107 -118 -133 -154 -133 -181 0 -19 -26 -57 -92 -133 -51 -58 -106 -123 -123 -143 -16 -20 -68 -79 -115 -131 -47 -52 -96 -108 -109 -125 -12 -16 -46 -55 -74 -85 -28 -30 -89 -99 -135 -153 -81 -95 -83 -99 -66 -118 9 -10 20 -19 25 -19 6 0 157 165 259 284 14 16 74 84 133 151 l109 121 66 -8 c37 -4 153 -16 257 -27 l190 -20 29 29 29 29 -24 5 c-13 2 -130 14 -259 27 -129 12 -237 23 -239 25 -2 2 20 30 50 62 30 32 71 79 92 105 32 40 41 46 57 37 10 -5 48 -10 84 -10 66 0 76 6 101 57 3 7 367 -35 376 -44 5 -5 12 -26 15 -45 6 -34 2 -40 -102 -149 -60 -62 -143 -147 -185 -189 -41 -41 -96 -99 -121 -127 -25 -29 -54 -53 -63 -53 -31 0 -54 -20 -60 -53 -5 -24 -53 -81 -190 -227 -155 -164 -180 -196 -162 -198 12 -2 27 -8 33 -13 11 -9 29 9 249 244 93 99 103 107 138 107 52 0 80 29 75 79 -3 38 2 43 286 341 179 187 302 308 323 316 41 18 67 17 120 -1 30 -10 50 -12 67 -5 13 5 75 60 138 122 62 62 146 142 186 177 137 121 143 164 43 316 -14 22 -27 46 -29 54 -2 8 -59 100 -127 205 -148 229 -167 245 -317 271 -38 6 -38 6 -38 -27z" fill="#ffffff"/>
<path d="M2175 3899 c-16 -5 -122 -28 -235 -50 -113 -23 -206 -42 -207 -44 -2 -1 9 -29 24 -63 l27 -61 216 111 c248 127 256 132 175 107z" fill="#ffffff"/>
<path d="M2430 3815 l-25 -30 33 -33 c17 -19 32 -29 32 -22 0 6 10 21 23 33 l22 23 -30 30 -30 29 -25 -30z" fill="#ffffff"/>
<path d="M695 3779 c-77 -3 -142 -7 -145 -8 -5 -2 300 -101 310 -101 3 0 17 27 32 60 l26 60 -41 -2 c-23 -1 -105 -5 -182 -9z" fill="#ffffff"/>
<path d="M4095 3731 c-29 -66 -56 -85 -132 -89 l-66 -5 59 -31 c71 -37 98 -79 90 -141 l-4 -40 16 25 c30 45 78 89 105 94 88 19 85 15 31 40 -69 32 -79 48 -78 123 0 34 0 63 -1 63 -1 0 -10 -18 -20 -39z" fill="#ffffff"/>
<path d="M3102 3570 c-73 -15 -134 -29 -137 -31 -2 -3 11 -94 29 -204 19 -110 42 -256 52 -324 17 -117 19 -125 47 -141 28 -17 30 -17 75 8 45 25 133 102 319 279 l87 82 -30 11 c-92 33 -105 43 -159 124 -29 45 -68 114 -85 154 -22 48 -38 72 -49 71 -9 -1 -76 -13 -149 -29z" fill="#ffffff"/>
<path d="M1792 3515 l-3 -65 273 1 273 1 -70 19 c-60 16 -458 109 -467 109 -2 0 -4 -29 -6 -65z" fill="#ffffff"/>
<path d="M647 3507 l-189 -52 197 -3 c109 -1 200 -1 202 2 6 6 -9 106 -16 105 -3 0 -91 -24 -194 -52z" fill="#ffffff"/>
<path d="M745 3234 c-200 -165 -258 -214 -251 -214 4 0 106 47 227 105 122 58 226 105 231 105 12 0 11 1 -27 68 -16 28 -32 52 -35 52 -3 -1 -68 -53 -145 -116z" fill="#ffffff"/>
<path d="M1722 3293 c-18 -31 -31 -57 -30 -58 9 -8 376 -196 443 -228 77 -35 79 -36 50 -10 -96 86 -419 354 -427 353 -2 -1 -18 -26 -36 -57z" fill="#ffffff"/>
<path d="M1010 3124 c-11 -26 -20 -49 -20 -51 0 -2 -11 -29 -25 -59 -14 -30 -25 -59 -25 -64 0 -4 -24 -68 -54 -142 -29 -73 -57 -144 -61 -158 -8 -28 42 38 149 195 37 55 92 135 122 178 l55 79 -57 34 c-31 19 -58 34 -60 34 -2 0 -12 -21 -24 -46z" fill="#ffffff"/>
<path d="M1561 3140 c-24 -16 -45 -31 -48 -33 -6 -7 312 -487 322 -487 3 0 0 10 -5 23 -5 12 -25 67 -45 122 -71 195 -159 405 -169 404 -6 0 -31 -13 -55 -29z" fill="#ffffff"/>
<path d="M3925 3082 c-41 -9 -55 -32 -55 -94 0 -55 1 -58 25 -58 23 0 25 3 25 50 l0 50 180 0 180 0 0 -50 c0 -47 2 -50 25 -50 24 0 25 3 25 58 0 94 -6 97 -214 98 -94 0 -180 -1 -191 -4z" fill="#ffffff"/>
<path d="M1260 3065 c0 -24 53 -427 64 -485 l12 -65 7 60 c4 33 16 146 27 250 11 105 22 204 25 220 l5 30 -70 0 c-39 0 -70 -4 -70 -10z" fill="#ffffff"/>
<path d="M4007 2974 c-4 -4 -7 -16 -7 -26 0 -16 10 -18 106 -18 104 0 105 0 102 23 -3 21 -8 22 -98 25 -53 1 -99 0 -103 -4z" fill="#ffffff"/>
<path d="M3600 2813 c-110 -111 -159 -129 -259 -97 l-51 17 -127 -134 c-70 -74 -177 -183 -236 -244 l-108 -110 5 -45 c4 -25 38 -208 78 -407 l71 -362 54 49 c29 27 77 60 106 75 l54 26 -8 57 c-4 31 -22 170 -39 308 l-33 250 93 160 c126 216 140 238 149 228 9 -10 62 -156 110 -299 16 -49 63 -187 104 -305 41 -118 87 -254 102 -302 l28 -86 36 22 c50 31 108 53 164 61 26 4 47 11 47 16 0 5 -18 68 -39 141 -93 314 -113 404 -156 667 -24 152 -47 300 -51 329 -4 29 -9 54 -13 56 -3 2 -40 -30 -81 -71z" fill="#ffffff"/>
<path d="M3812 2868 c-16 -16 -16 -130 0 -146 17 -17 569 -17 586 0 16 16 16 130 0 146 -17 17 -569 17 -586 0z" fill="#ffffff"/>
<path d="M3876 2573 c3 -54 11 -109 18 -123 l11 -25 196 -3 c151 -2 199 1 207 10 6 8 14 64 18 126 l7 112 -232 0 -232 0 7 -97z" fill="#ffffff"/>
<path d="M1270 2373 c0 -10 -7 -87 -15 -172 -8 -85 -13 -156 -11 -158 1 -2 13 29 25 69 25 79 81 271 81 275 0 2 -18 3 -40 3 -31 0 -40 -4 -40 -17z" fill="#ffffff"/>
<path d="M988 2367 l-27 -12 57 -152 c31 -83 58 -151 59 -149 3 3 -26 274 -32 304 -6 25 -18 27 -57 9z" fill="#ffffff"/>
<path d="M1594 2268 c-20 -40 -56 -110 -81 -155 -25 -46 -42 -83 -39 -83 3 0 33 34 66 76 33 42 67 82 75 90 8 8 31 35 52 60 l37 46 -25 19 c-13 10 -30 19 -36 19 -7 0 -29 -33 -49 -72z" fill="#ffffff"/>
<path d="M726 2268 l-27 -23 106 -130 c59 -71 113 -137 122 -145 9 -8 -22 59 -69 150 -47 90 -90 166 -95 167 -6 2 -23 -6 -37 -19z" fill="#ffffff"/>
<path d="M4251 2220 c0 -8 -14 -43 -30 -76 -33 -71 -74 -106 -146 -127 l-50 -14 45 -12 c140 -34 162 -55 168 -157 l4 -66 34 63 c40 76 89 122 158 148 l51 20 -37 0 c-61 1 -135 21 -153 41 -10 11 -22 53 -30 107 -7 48 -13 81 -14 73z" fill="#ffffff"/>
<path d="M2130 2160 c-14 -3 -34 -12 -45 -20 -20 -15 -364 -392 -398 -436 -18 -23 -18 -23 5 -28 37 -8 213 -26 252 -26 33 0 50 16 267 242 127 133 227 244 222 245 -25 9 -281 28 -303 23z" fill="#ffffff"/>
<path d="M586 2082 c-15 -18 -13 -21 40 -63 31 -24 84 -66 117 -94 34 -27 54 -40 46 -28 -38 55 -165 202 -175 202 -6 1 -18 -7 -28 -17z" fill="#ffffff"/>
<path d="M1185 1933 c-65 -10 -115 -78 -115 -159 0 -36 0 -36 40 -32 l40 4 0 -63 0 -63 -102 0 c-117 0 -166 -17 -217 -75 -27 -32 -51 -99 -38 -111 3 -3 90 -18 193 -34 104 -16 198 -32 209 -35 11 -2 55 -2 98 2 70 5 77 8 77 27 0 12 -7 31 -15 43 -13 18 -25 22 -73 21 -49 0 -242 26 -351 48 l-34 7 27 24 c16 14 40 23 59 23 73 0 370 -49 394 -65 26 -17 53 -70 53 -105 0 -19 6 -20 89 -20 48 0 109 3 133 6 45 6 46 7 52 50 8 58 37 114 79 151 l35 31 -92 6 c-142 11 -137 9 -134 75 l3 56 48 3 47 3 0 37 c-1 53 -33 118 -69 136 -24 13 -65 16 -218 15 -103 -1 -201 -4 -218 -6z m340 -87 c9 -14 15 -39 13 -58 l-3 -33 -162 -3 -163 -2 0 39 c0 31 6 44 26 60 24 19 40 21 150 21 120 0 124 -1 139 -24z" fill="#ffffff"/>
<path d="M2382 1790 l-121 -129 17 -31 c9 -16 20 -30 23 -30 4 0 26 30 50 68 23 37 57 90 74 117 65 102 85 135 82 135 -2 0 -58 -58 -125 -130z" fill="#ffffff"/>
<path d="M605 1799 c-4 -11 -5 -22 -3 -24 5 -5 292 -64 295 -61 4 4 -260 106 -274 106 -7 0 -15 -9 -18 -21z" fill="#ffffff"/>
<path d="M3891 1623 c-58 -60 -105 -122 -99 -129 3 -2 28 -7 56 -11 39 -4 49 -9 45 -20 -4 -11 64 33 95 62 6 5 -38 145 -45 145 -4 0 -27 -21 -52 -47z" fill="#ffffff"/>
<path d="M2074 1640 c-26 -10 -62 -55 -71 -88 -9 -37 14 -98 48 -126 23 -20 42 -26 76 -26 39 0 50 5 84 39 34 34 39 44 39 86 0 42 -5 52 -39 86 -32 32 -45 39 -77 38 -22 0 -49 -4 -60 -9z m86 -84 c19 -23 8 -61 -18 -64 -45 -7 -72 46 -34 67 24 14 38 13 52 -3z" fill="#ffffff"/>
<path d="M3390 1613 c-43 -53 -87 -143 -100 -210 -7 -31 -10 -101 -8 -155 2 -54 2 -98 0 -98 -2 0 -15 26 -30 58 -23 49 -27 70 -27 149 0 50 -3 89 -6 87 -24 -14 -106 -156 -135 -230 l-33 -89 -1 60 c0 33 7 84 14 113 18 66 69 176 103 220 14 18 23 35 21 37 -2 3 -28 -15 -57 -39 -68 -56 -164 -184 -195 -261 -23 -57 -24 -59 -31 -32 -4 15 -6 70 -3 122 l4 93 -31 -20 c-16 -12 -42 -33 -57 -46 l-28 -26 0 55 c0 63 24 173 46 209 8 14 -6 2 -33 -26 -86 -90 -141 -245 -129 -364 l6 -55 -21 45 c-45 95 -33 247 25 333 l25 37 -37 -23 c-41 -26 -117 -116 -163 -192 l-30 -50 4 115 c2 63 7 124 11 135 18 47 -44 -42 -65 -94 -29 -74 -38 -245 -16 -309 15 -43 15 -43 -4 -26 -31 28 -80 140 -86 197 -3 29 -1 69 5 90 26 93 -73 -61 -114 -177 l-31 -89 -6 44 c-3 24 -3 64 0 89 l6 45 -23 -28 c-12 -16 -35 -52 -51 -80 l-29 -52 0 55 c0 86 -12 94 -63 40 -23 -25 -52 -58 -64 -75 l-22 -30 -1 26 c0 24 17 88 35 133 8 19 8 19 -24 0 -50 -29 -122 -113 -159 -185 l-33 -64 6 48 c11 83 34 145 69 182 l34 35 -37 -6 c-86 -16 -159 -63 -213 -139 l-30 -40 7 40 c18 112 21 105 -25 55 -23 -25 -56 -72 -75 -104 l-33 -59 5 60 c9 101 -28 152 -122 168 l-40 6 28 -18 c51 -33 47 -63 -22 -156 l-35 -47 -13 43 c-12 41 -75 127 -94 127 -5 0 -9 -26 -9 -57 -1 -61 -27 -146 -29 -92 -2 45 -32 133 -58 167 -24 31 -78 72 -96 72 -4 0 -4 -8 1 -17 15 -30 23 -87 16 -123 l-7 -33 -25 49 c-32 65 -57 91 -116 121 -63 32 -126 54 -126 45 0 -14 189 -240 263 -315 284 -286 684 -494 1100 -571 295 -55 553 -56 837 -6 504 90 950 349 1268 738 62 75 136 182 126 182 -20 0 -121 -91 -150 -134 -19 -28 -34 -43 -34 -34 0 43 24 120 50 162 16 25 26 46 22 46 -23 0 -116 -66 -155 -110 -44 -49 -127 -197 -127 -226 0 -7 -4 -15 -9 -18 -10 -7 -5 52 11 129 13 64 73 185 116 236 46 54 22 49 -39 -8 -69 -64 -115 -130 -142 -202 -13 -34 -26 -58 -30 -55 -11 11 -8 139 3 168 5 14 7 26 4 26 -11 0 -91 -44 -123 -68 l-34 -25 6 44 c9 65 42 136 94 203 36 46 41 56 22 46 -137 -73 -228 -219 -238 -385 l-6 -90 -20 50 c-28 70 -29 254 -2 304 l19 34 -29 -21 c-31 -22 -80 -73 -121 -127 l-23 -30 5 85 c3 55 14 110 29 153 14 37 23 67 21 67 -1 0 -17 -17 -34 -37z" fill="#ffffff"/>
<path d="M1875 1574 c-21 -8 -49 -24 -62 -35 -25 -25 -53 -98 -53 -142 l0 -30 53 7 c28 3 80 6 113 6 l61 0 -24 48 c-20 38 -24 58 -21 105 5 64 2 66 -67 41z" fill="#ffffff"/>
</g>
</svg>