<svg xmlns="http://www.w3.org/2000/svg" version="1.0" width="500.000000pt" height="500.000000pt" viewBox="0 0 500.000000 500.000000" preserveAspectRatio="xMidYMid meet">

<g transform="translate(0.000000,500.000000) scale(0.100000,-0.100000)" fill="#ffffff" stroke="none">
<path d="M3850 4363 c11 -15 102 -105 202 -200 122 -117 184 -170 192 -164 6 5 19 24 30 41 l19 33 -164 158 -164 159 -68 0 -68 0 21 -27z" fill="#ffffff"/>
<path d="M3667 4343 c-24 -23 5 -59 211 -260 137 -134 225 -212 238 -213 24 0 44 18 44 41 0 9 -97 112 -216 228 -175 172 -221 211 -243 211 -15 0 -31 -3 -34 -7z" fill="#ffffff"/>
<path d="M3555 4218 c-39 -57 -213 -222 -250 -238 -23 -10 -118 -46 -213 -80 -157 -57 -176 -67 -210 -105 -21 -23 -44 -55 -52 -71 -21 -40 -146 -248 -186 -311 -19 -28 -34 -55 -34 -59 0 -4 -35 -64 -77 -133 -115 -187 -143 -283 -109 -366 16 -37 67 -75 102 -75 12 0 41 9 65 20 132 60 283 -21 297 -158 5 -60 -9 -108 -49 -159 -100 -127 -305 -84 -359 77 l-17 50 -84 -62 c-47 -35 -116 -85 -154 -113 -194 -141 -403 -306 -532 -420 -100 -88 -180 -172 -172 -180 4 -3 98 35 339 138 58 25 181 81 274 126 93 45 173 80 178 79 8 -3 -82 -153 -224 -372 -46 -71 -91 -144 -101 -162 l-17 -34 51 31 c28 16 78 49 111 72 33 23 71 49 83 57 13 9 58 45 100 80 42 36 100 85 128 108 29 24 124 114 212 200 87 87 177 170 200 186 72 51 107 90 136 151 91 190 -30 408 -245 440 l-47 7 22 37 c79 131 89 153 90 204 1 63 14 102 56 160 47 68 109 100 202 105 103 6 148 -8 209 -66 68 -63 96 -126 96 -218 0 -61 -4 -81 -31 -133 -17 -34 -29 -61 -25 -61 4 0 77 50 162 112 85 61 180 128 210 148 l55 37 34 134 c61 241 77 285 118 318 20 17 61 40 91 52 l55 22 -229 224 c-125 123 -231 223 -235 223 -4 0 -15 -10 -24 -22z" fill="#ffffff"/>
<path d="M1735 3991 c-98 -25 -190 -96 -226 -176 -10 -22 -19 -62 -19 -88 0 -42 5 -54 34 -83 44 -44 102 -49 166 -13 72 41 123 156 124 284 1 78 1 80 -24 82 -14 1 -38 -2 -55 -6z" fill="#ffffff"/>
<path d="M1032 3634 c-15 -10 -22 -25 -22 -49 0 -30 15 -47 165 -187 l165 -153 0 -473 0 -473 -40 37 c-26 24 -44 52 -50 78 -40 158 -130 221 -307 214 l-78 -3 1 -46 c2 -50 53 -163 99 -217 35 -42 124 -84 168 -81 30 3 43 -6 120 -76 l87 -79 0 -356 -1 -355 -68 74 -69 75 14 32 c41 98 -18 255 -126 333 -63 45 -189 84 -279 85 l-76 1 -3 -53 c-4 -73 29 -199 76 -286 52 -97 137 -169 219 -187 56 -11 63 -17 186 -138 l127 -126 0 -253 c0 -264 5 -300 45 -316 54 -20 100 7 110 64 6 35 23 56 138 166 125 118 134 125 166 120 110 -17 266 66 340 183 37 58 91 204 94 258 2 36 1 37 -43 45 -57 10 -189 -5 -261 -30 -153 -53 -249 -171 -249 -305 0 -35 -7 -46 -90 -129 l-90 -91 0 260 0 260 105 105 c110 111 121 132 85 168 -35 35 -75 26 -136 -31 l-54 -52 0 316 0 316 100 93 c100 93 101 93 164 100 112 11 201 77 263 194 56 106 100 293 72 310 -15 9 -104 6 -167 -6 -94 -17 -161 -50 -223 -108 -83 -76 -103 -117 -105 -216 l-2 -78 -51 -52 -51 -51 0 237 0 237 160 157 c126 124 160 163 160 184 0 34 -18 57 -51 65 -23 6 -38 -3 -105 -63 -44 -38 -97 -88 -119 -111 -21 -23 -42 -41 -45 -41 -3 0 -5 87 -5 194 0 182 -1 196 -21 223 -22 29 -50 39 -89 29 -28 -7 -35 -24 -44 -96 l-6 -54 -117 112 c-122 117 -142 127 -186 96z" fill="#ffffff"/>
<path d="M3845 3193 c-120 -87 -243 -176 -275 -198 -59 -42 -191 -137 -333 -241 l-82 -60 -6 -85 c-6 -90 -39 -181 -82 -228 l-22 -23 25 7 c14 4 44 17 66 30 l42 22 38 -42 c66 -73 159 -74 226 -4 48 50 64 107 50 174 -9 43 -8 52 6 63 14 11 18 7 29 -31 35 -119 191 -147 253 -44 38 62 15 162 -45 189 -14 6 -25 14 -25 18 0 4 18 19 40 34 l40 26 0 -35 c0 -92 86 -158 173 -134 123 34 143 200 30 254 -23 11 -42 22 -42 25 0 5 86 69 187 138 105 72 128 139 75 220 -28 43 -90 82 -130 82 -11 0 -119 -71 -238 -157z" fill="#ffffff"/>
<path d="M3014 3311 c-117 -72 -120 -232 -4 -291 80 -41 183 -13 219 59 26 51 27 120 2 169 -37 73 -148 105 -217 63z" fill="#ffffff"/>
<path d="M901 3142 c-17 -12 -10 -43 30 -125 68 -140 176 -196 251 -129 26 24 31 36 31 74 0 58 -47 129 -106 160 -46 23 -181 36 -206 20z" fill="#ffffff"/>
<path d="M2655 2713 c-52 -13 -83 -73 -65 -127 23 -72 107 -91 161 -37 52 53 33 135 -38 162 -26 9 -26 10 -58 2z" fill="#ffffff"/>
<path d="M3406 1713 c-60 -73 -88 -144 -89 -218 l-1 -64 -28 24 c-33 28 -85 42 -101 26 -19 -19 10 -117 47 -156 55 -58 116 -45 116 23 l0 33 26 -20 c31 -24 49 -26 84 -6 24 13 25 12 35 -23 9 -31 15 -37 42 -40 62 -6 123 75 123 166 0 38 -15 41 -78 12 l-43 -19 7 48 c11 81 -46 251 -86 259 -8 1 -32 -19 -54 -45z" fill="#ffffff"/>
<path d="M2793 1659 c-18 -5 -33 -12 -33 -15 0 -4 14 -23 31 -43 69 -79 207 -139 264 -113 22 10 24 14 14 39 -18 49 -53 91 -92 113 -44 25 -135 35 -184 19z" fill="#ffffff"/>
<path d="M3937 1656 c-21 -8 -47 -22 -59 -33 -32 -29 -71 -101 -64 -119 10 -25 118 -14 182 19 50 25 134 98 134 117 0 13 -66 30 -115 30 -22 -1 -57 -7 -78 -14z" fill="#ffffff"/>
<path d="M2818 1354 c-23 -7 -23 -11 7 -50 43 -56 110 -89 182 -89 80 0 94 13 68 61 -32 61 -68 79 -160 81 -44 1 -88 -1 -97 -3z" fill="#ffffff"/>
<path d="M3835 1346 c-41 -18 -87 -73 -83 -99 6 -42 103 -46 176 -8 45 23 119 98 108 108 -14 15 -169 14 -201 -1z" fill="#ffffff"/>
<path d="M3351 1214 c-44 -56 -50 -132 -15 -182 20 -28 58 -28 78 0 22 31 21 131 -1 169 -23 39 -39 42 -62 13z" fill="#ffffff"/>
<path d="M833 1200 c-99 -14 -100 -18 -47 -127 41 -86 128 -178 199 -213 90 -44 193 -22 221 45 20 48 17 82 -10 140 -43 91 -110 137 -222 155 -65 11 -66 11 -141 0z" fill="#ffffff"/>
<path d="M4099 1186 c-85 -30 -139 -82 -139 -135 0 -57 53 -101 122 -101 49 0 128 41 170 88 36 39 88 115 88 127 0 3 -16 13 -35 21 -42 17 -157 18 -206 0z" fill="#ffffff"/>
<path d="M2488 1183 c-34 -9 -20 -46 46 -123 63 -75 129 -106 190 -89 44 12 68 41 68 82 0 49 -25 82 -85 112 -42 21 -64 25 -126 24 -42 -1 -84 -3 -93 -6z" fill="#ffffff"/>
<path d="M3094 1088 c11 -89 35 -147 81 -195 35 -36 49 -44 72 -41 27 3 28 4 28 63 0 52 -5 69 -35 118 -37 62 -92 107 -129 107 -23 0 -23 -2 -17 -52z" fill="#ffffff"/>
<path d="M3588 1115 c-70 -48 -123 -151 -116 -225 3 -30 7 -35 32 -38 23 -3 37 6 76 46 42 44 50 59 65 125 26 117 12 139 -57 92z" fill="#ffffff"/>
<path d="M3809 962 c-56 -36 -87 -74 -95 -118 l-6 -34 -349 0 c-315 0 -349 2 -349 16 0 56 -93 145 -154 148 -28 1 -31 -2 -34 -34 -2 -22 6 -53 21 -82 l24 -48 -582 -2 c-557 -3 -584 -4 -604 -22 -27 -24 -27 -70 -1 -96 20 -20 33 -20 1279 -20 785 0 1269 4 1285 10 47 17 47 97 1 118 -17 8 -91 12 -210 12 -102 0 -185 2 -185 4 0 2 9 24 21 50 23 53 23 119 -1 124 -8 1 -36 -10 -61 -26z" fill="#ffffff"/>
</g>
</svg>