<svg xmlns="http://www.w3.org/2000/svg" version="1.0" width="500.000000pt" height="500.000000pt" viewBox="0 0 500.000000 500.000000" preserveAspectRatio="xMidYMid meet">

<g transform="translate(0.000000,500.000000) scale(0.100000,-0.100000)" fill="#ffffff" stroke="none">
<path d="M1928 4330 c-174 -44 -289 -193 -291 -375 -2 -226 182 -397 410 -383 60 4 88 12 149 43 82 42 129 88 171 167 26 49 28 61 28 173 0 112 -2 124 -28 173 -67 128 -185 203 -327 208 -41 2 -92 -1 -112 -6z" fill="#ffffff"/>
<path d="M3767 4272 c-28 -31 -70 -134 -75 -184 -4 -42 -1 -50 26 -78 23 -23 39 -30 69 -30 21 0 43 4 49 8 24 17 44 59 44 94 0 66 -61 208 -90 208 -4 0 -14 -8 -23 -18z" fill="#ffffff"/>
<path d="M3421 4098 c-36 -57 -63 -126 -68 -174 -5 -49 -3 -55 25 -83 34 -34 67 -39 111 -16 64 32 63 128 -2 235 -37 63 -47 68 -66 38z" fill="#ffffff"/>
<path d="M4096 3898 c-28 -43 -56 -116 -62 -162 -11 -79 42 -129 113 -105 49 16 67 49 60 110 -6 51 -63 170 -84 177 -6 2 -19 -7 -27 -20z" fill="#ffffff"/>
<path d="M3753 3768 c-59 -101 -70 -189 -28 -228 34 -32 83 -30 114 6 20 24 23 35 18 83 -6 55 -52 161 -73 168 -6 2 -20 -11 -31 -29z" fill="#ffffff"/>
<path d="M3111 3719 c-39 -53 -71 -139 -71 -190 0 -56 42 -99 97 -99 72 0 111 53 99 133 -7 46 -66 180 -85 191 -6 4 -24 -12 -40 -35z" fill="#ffffff"/>
<path d="M1278 3611 c-54 -18 -101 -45 -143 -84 -11 -10 -45 -37 -75 -60 -49 -37 -120 -95 -361 -292 -82 -66 -111 -120 -111 -204 0 -76 6 -88 248 -466 56 -88 111 -179 123 -201 25 -52 71 -91 116 -100 108 -20 195 56 195 169 0 35 -10 61 -51 128 -28 46 -74 122 -102 169 -28 47 -72 118 -99 159 -29 44 -48 85 -48 102 0 28 8 37 120 123 224 173 210 165 240 146 12 -7 16 -39 20 -141 l5 -131 90 -32 c195 -70 353 -173 469 -308 40 -47 56 -57 119 -77 40 -13 78 -26 84 -28 10 -4 13 64 15 303 l3 309 34 -70 c19 -38 85 -180 148 -315 181 -389 166 -364 221 -382 26 -9 118 -41 206 -72 l158 -55 -7 37 c-3 20 -24 76 -46 123 -21 47 -39 88 -39 92 0 3 -27 63 -61 134 -106 221 -137 290 -163 350 -13 32 -62 137 -109 233 -46 96 -89 192 -96 212 -7 20 -30 55 -53 78 -44 47 -45 47 -143 9 -83 -32 -243 -33 -328 -1 -64 23 -174 97 -205 137 -20 25 -22 25 -168 24 -115 0 -162 -4 -206 -18z" fill="#ffffff"/>
<path d="M3692 3282 c-69 -102 -93 -218 -57 -279 31 -52 88 -67 149 -38 66 32 83 109 45 210 -21 57 -77 146 -94 152 -5 2 -25 -19 -43 -45z" fill="#ffffff"/>
<path d="M3174 3210 c8 -57 35 -137 61 -177 34 -52 130 -74 176 -40 56 41 51 139 -8 192 -29 25 -124 60 -196 72 l-40 6 7 -53z" fill="#ffffff"/>
<path d="M4098 3158 c-54 -103 -64 -193 -23 -233 34 -35 78 -33 117 5 28 28 30 36 26 80 -5 52 -64 182 -85 188 -7 2 -22 -16 -35 -40z" fill="#ffffff"/>
<path d="M1156 2828 c54 -93 86 -128 127 -139 66 -17 228 -89 277 -122 55 -37 185 -168 204 -206 11 -20 13 -48 9 -106 l-6 -77 -63 -30 c-35 -16 -104 -37 -154 -46 -77 -13 -106 -14 -188 -4 -83 10 -103 10 -141 -3 -24 -9 -51 -13 -60 -10 -11 3 -28 -6 -46 -25 -19 -20 -38 -30 -58 -30 -27 0 -240 90 -260 110 -5 4 1 39 14 78 l22 70 -33 52 c-39 61 -38 61 -80 -72 -35 -113 -37 -142 -10 -185 26 -43 44 -53 194 -113 148 -59 170 -60 260 -10 l53 30 94 -15 c111 -18 175 -19 272 -4 90 13 158 35 217 68 42 25 47 26 75 12 17 -9 55 -16 85 -17 55 -1 155 -34 535 -174 224 -83 466 -162 473 -156 11 11 -11 23 -143 79 -72 31 -164 71 -205 90 -110 50 -217 97 -224 97 -10 0 -280 122 -290 131 -5 5 -5 13 1 21 6 7 16 29 22 50 l12 36 57 -22 c31 -13 145 -61 252 -108 107 -48 233 -102 280 -121 47 -19 126 -53 175 -75 l90 -40 7 47 c3 25 7 67 7 93 l1 46 -87 32 c-49 18 -174 60 -278 95 -357 118 -550 188 -570 205 -36 32 -68 43 -127 44 l-59 2 -67 87 c-127 166 -318 276 -571 328 -111 23 -104 22 -95 7z m849 -553 c52 -51 17 -135 -57 -135 -33 0 -88 47 -88 75 0 73 93 112 145 60z" fill="#ffffff"/>
<path d="M3932 2751 c-120 -41 -164 -147 -92 -216 76 -73 199 6 229 146 19 86 17 89 -36 89 -27 -1 -72 -9 -101 -19z" fill="#ffffff"/>
<path d="M3293 2738 c-35 -43 -66 -128 -71 -190 -4 -62 -3 -68 22 -93 24 -24 33 -27 69 -22 62 9 90 45 85 111 -5 55 -50 165 -78 191 -14 12 -19 13 -27 3z" fill="#ffffff"/>
<path d="M4205 2582 c-32 -48 -65 -141 -65 -182 0 -63 43 -109 101 -110 65 0 108 60 96 135 -9 52 -72 190 -90 193 -9 2 -26 -13 -42 -36z" fill="#ffffff"/>
<path d="M3562 2513 c-104 -162 -103 -301 1 -327 56 -14 107 2 135 44 36 53 27 126 -30 238 -25 48 -52 88 -60 90 -9 2 -28 -16 -46 -45z" fill="#ffffff"/>
<path d="M1360 2494 c31 -72 35 -139 12 -211 l-20 -62 30 -6 c65 -15 278 30 278 58 0 35 -86 132 -165 187 -38 26 -138 80 -149 80 -3 0 4 -21 14 -46z" fill="#ffffff"/>
<path d="M3884 2244 c-101 -101 -132 -212 -76 -274 55 -63 155 -43 189 38 11 26 14 55 10 102 -5 63 -39 174 -57 185 -5 3 -34 -20 -66 -51z" fill="#ffffff"/>
<path d="M3175 2156 c-47 -112 -58 -246 -27 -306 42 -76 135 -89 199 -25 29 29 33 39 33 86 0 68 -27 124 -98 200 -77 84 -89 89 -107 45z" fill="#ffffff"/>
<path d="M4155 2012 c-61 -28 -103 -76 -121 -138 -20 -68 -16 -100 11 -96 11 1 49 5 85 9 48 5 69 11 82 27 31 37 49 99 46 156 -3 53 -4 55 -33 58 -16 1 -48 -6 -70 -16z" fill="#ffffff"/>
<path d="M3584 1966 c-106 -96 -156 -223 -116 -296 54 -101 196 -84 233 28 22 65 -5 253 -43 305 -12 17 -18 14 -74 -37z" fill="#ffffff"/>
<path d="M1853 1918 l-23 -11 0 -599 0 -598 185 0 185 0 -2 563 -3 562 -140 47 c-150 49 -168 53 -202 36z" fill="#ffffff"/>
<path d="M1280 1281 l0 -571 180 0 180 0 0 568 0 569 -57 -9 c-56 -9 -218 -4 -275 8 l-28 6 0 -571z" fill="#ffffff"/>
<path d="M3824 1715 c-61 -63 -77 -133 -50 -220 l12 -40 18 53 c23 68 57 127 100 176 28 31 33 42 25 57 -17 33 -58 23 -105 -26z" fill="#ffffff"/>
<path d="M3090 1679 c0 -17 11 -64 25 -105 14 -41 25 -78 25 -82 0 -4 -28 -7 -63 -8 -66 -1 -139 -29 -151 -59 -6 -17 6 -48 31 -77 12 -14 29 -15 106 -11 108 6 176 -13 259 -73 l51 -36 19 23 c28 36 20 144 -16 226 -35 76 -130 172 -208 208 -69 32 -78 32 -78 -6z" fill="#ffffff"/>
<path d="M4075 1646 c-69 -32 -139 -110 -159 -177 -21 -69 -20 -86 4 -94 48 -15 260 205 260 271 0 20 -5 24 -27 24 -16 0 -50 -11 -78 -24z" fill="#ffffff"/>
<path d="M2580 1580 c-11 -7 -14 -24 -13 -61 3 -67 48 -147 79 -139 10 3 52 5 92 5 68 0 72 1 72 23 0 68 -67 141 -152 167 -60 18 -59 17 -78 5z" fill="#ffffff"/>
<path d="M3625 1468 c-30 -16 -74 -59 -106 -102 l-29 -39 43 -51 c24 -28 56 -71 72 -96 15 -25 29 -47 31 -49 8 -9 38 27 55 64 24 53 24 131 -1 198 -28 75 -40 89 -65 75z" fill="#ffffff"/>
<path d="M840 1438 c-26 -42 -49 -121 -58 -197 l-7 -60 -52 43 c-55 46 -99 64 -116 47 -7 -7 1 -47 26 -128 37 -117 79 -294 92 -386 l6 -47 162 2 161 3 18 120 c10 66 34 184 53 263 41 166 42 182 16 182 -20 0 -82 -38 -123 -78 -19 -18 -28 -21 -28 -11 -2 50 -32 174 -55 222 -32 70 -63 77 -95 25z" fill="#ffffff"/>
<path d="M4198 1416 c-87 -31 -155 -88 -219 -183 l-15 -22 -43 30 c-86 57 -110 27 -58 -73 19 -36 36 -74 39 -86 5 -20 12 -15 71 42 84 82 154 116 254 125 l76 6 38 55 c43 61 49 94 20 110 -27 14 -118 12 -163 -4z" fill="#ffffff"/>
<path d="M2710 1273 c-14 -2 -38 -9 -53 -15 l-29 -11 67 -33 c88 -44 148 -94 204 -171 l46 -63 11 52 c6 29 15 65 19 80 6 22 0 34 -35 71 -60 66 -153 102 -230 90z" fill="#ffffff"/>
<path d="M3070 1204 c0 -32 52 -101 86 -113 17 -6 52 -27 77 -46 l45 -34 11 44 c17 69 14 78 -37 112 -74 50 -182 71 -182 37z" fill="#ffffff"/>
<path d="M3454 1149 c-43 -56 -69 -221 -54 -349 5 -47 10 -86 10 -87 0 -2 87 -3 194 -3 l194 0 21 89 c12 49 24 109 27 133 8 56 -10 125 -36 133 -28 9 -97 -30 -152 -88 -26 -27 -49 -48 -51 -46 -1 2 -19 38 -40 80 -48 96 -98 157 -113 138z" fill="#ffffff"/>
<path d="M2570 1113 c0 -10 12 -40 25 -68 l26 -50 -73 -6 c-73 -6 -141 -32 -167 -63 -21 -25 4 -46 53 -46 113 -1 286 -64 364 -134 32 -29 47 -36 81 -36 22 0 41 1 41 3 0 2 -11 36 -25 76 -52 154 -134 260 -243 315 -60 30 -82 33 -82 9z" fill="#ffffff"/>
<path d="M4142 1104 c-90 -45 -171 -162 -207 -299 -22 -85 -20 -95 14 -95 19 0 45 14 77 41 88 73 199 117 324 128 61 6 65 8 65 30 0 38 -76 73 -170 79 l-74 5 30 52 c50 89 34 106 -59 59z" fill="#ffffff"/>
<path d="M3034 986 c-33 -25 -34 -134 -1 -233 l12 -38 119 -3 118 -3 -4 60 c-5 74 -41 129 -113 178 -65 43 -108 55 -131 39z" fill="#ffffff"/>
</g>
</svg>